<?xml version="1.0" encoding="UTF-8" standalone="no"?><!DOCTYPE svg PUBLIC "-//W3C//DTD SVG 1.1//EN" "http://www.w3.org/Graphics/SVG/1.1/DTD/svg11.dtd"><svg width="100%" height="100%" viewBox="0 0 2481 3508" version="1.1" xmlns="http://www.w3.org/2000/svg" xmlns:xlink="http://www.w3.org/1999/xlink" xml:space="preserve" style="fill-rule:evenodd;clip-rule:evenodd;stroke-linecap:round;stroke-linejoin:round;stroke-miterlimit:1.5;"><g><g><path d="M1299.01,1423.73l248.087,0" style="fill:#fff;stroke:#f50a3d;stroke-width:27.08px;"/><path d="M1827.5,1423.73l248.088,0" style="fill:#f50a3d;stroke:#39881b;stroke-width:27.08px;"/><path d="M1547.1,1423.73l280.404,0" style="fill:#f50a3d;stroke:#fff;stroke-width:27.08px;"/></g><g transform="matrix(0.820347,0,0,0.83066,677.421,405.952)"><path d="M807.239,913.114l35.029,143.471l0.805,0l35.432,-143.471l49.792,0l0,195.411l-37.982,0l0,-56.771l3.221,-75.964l-0.805,-0.134l-37.311,132.869l-25.366,0l-36.908,-131.795l-0.805,0.134l3.355,74.89l0,56.771l-37.981,0l0,-195.411l49.524,0Z" style="fill:none;"/><path d="M1083.3,1022.76l-65.629,0l0,55.295l77.171,0l0,30.466l-115.421,0l0,-195.411l115.153,0l0,30.6l-76.903,0l0,48.584l65.629,0l0,30.466Z" style="fill:none;"/><path d="M1197.09,981.427l0.805,0l26.574,-68.313l44.155,0l-47.376,96.9l50.597,98.511l-46.034,0l-27.379,-69.79l-0.805,0l-27.379,69.79l-44.424,0l48.584,-98.511l-47.376,-96.9l43.887,0l26.171,68.313Z" style="fill:none;"/><rect x="1312.5" y="913.114" width="37.982" height="195.411" style="fill:none;"/><path d="M1526.95,1045.58l0.403,0.805c0.178,21.474 -4.922,37.669 -15.301,48.585c-10.378,10.915 -25.679,16.373 -45.9,16.373c-20.221,0 -36.371,-6.196 -48.45,-18.588c-12.079,-12.392 -18.118,-29.951 -18.118,-52.678l0,-58.381c0,-22.637 5.838,-40.196 17.514,-52.678c11.677,-12.482 27.312,-18.722 46.907,-18.722c20.758,0 36.438,5.547 47.041,16.642c10.603,11.095 16.083,27.513 16.441,49.255l-0.403,0.805l-36.774,0c0.537,-12.794 -1.208,-22.01 -5.234,-27.647c-4.026,-5.637 -11.05,-8.455 -21.071,-8.455c-8.589,0 -15.166,3.355 -19.729,10.065c-4.563,6.711 -6.845,16.866 -6.845,30.466l0,58.65c0,13.779 2.438,24.024 7.315,30.735c4.876,6.71 12.012,10.066 21.406,10.066c9.216,0 15.636,-2.662 19.26,-7.986c3.623,-5.324 5.212,-14.428 4.764,-27.312l36.774,0Z" style="fill:none;"/><path d="M1704.36,1038.33c0,22.905 -6.219,40.8 -18.656,53.684c-12.437,12.884 -28.989,19.326 -49.658,19.326c-20.668,0 -37.176,-6.442 -49.524,-19.326c-12.347,-12.884 -18.521,-30.779 -18.521,-53.684l0,-54.758c0,-22.816 6.174,-40.733 18.521,-53.752c12.348,-13.018 28.811,-19.527 49.39,-19.527c20.579,0 37.132,6.509 49.658,19.527c12.526,13.019 18.79,30.936 18.79,53.752l0,54.758Zm-37.982,-55.027c0,-13.958 -2.595,-24.493 -7.784,-31.606c-5.19,-7.114 -12.75,-10.67 -22.682,-10.67c-10.021,0 -17.537,3.534 -22.547,10.603c-5.011,7.068 -7.516,17.626 -7.516,31.673l0,55.027c0,14.137 2.55,24.739 7.65,31.808c5.1,7.068 12.616,10.602 22.547,10.602c9.842,0 17.358,-3.534 22.548,-10.602c5.189,-7.069 7.784,-17.671 7.784,-31.808l0,-55.027Z" style="fill:none;"/><path d="M807.239,913.114l35.029,143.471l0.805,0l35.432,-143.471l49.792,0l0,195.411l-37.982,0l0,-56.771l3.221,-75.964l-0.805,-0.134l-37.311,132.869l-25.366,0l-36.908,-131.795l-0.805,0.134l3.355,74.89l0,56.771l-37.981,0l0,-195.411l49.524,0Z" style="fill:#fff;fill-rule:nonzero;stroke:#fff;stroke-width:1.21px;stroke-linecap:butt;stroke-miterlimit:1.41421;"/><path d="M1083.3,1022.76l-65.629,0l0,55.295l77.171,0l0,30.466l-115.421,0l0,-195.411l115.153,0l0,30.6l-76.903,0l0,48.584l65.629,0l0,30.466Z" style="fill:#fff;fill-rule:nonzero;stroke:#fff;stroke-width:1.21px;stroke-linecap:butt;stroke-miterlimit:1.41421;"/><path d="M1197.09,981.427l0.805,0l26.574,-68.313l44.155,0l-47.376,96.9l50.597,98.511l-46.034,0l-27.379,-69.79l-0.805,0l-27.379,69.79l-44.424,0l48.584,-98.511l-47.376,-96.9l43.887,0l26.171,68.313Z" style="fill:#fff;fill-rule:nonzero;stroke:#fff;stroke-width:1.21px;stroke-linecap:butt;stroke-miterlimit:1.41421;"/><rect x="1312.5" y="913.114" width="37.982" height="195.411" style="fill:#fff;fill-rule:nonzero;stroke:#fff;stroke-width:1.21px;stroke-linecap:butt;stroke-miterlimit:1.41421;"/><path d="M1526.95,1045.58l0.403,0.805c0.178,21.474 -4.922,37.669 -15.301,48.585c-10.378,10.915 -25.679,16.373 -45.9,16.373c-20.221,0 -36.371,-6.196 -48.45,-18.588c-12.079,-12.392 -18.118,-29.951 -18.118,-52.678l0,-58.381c0,-22.637 5.838,-40.196 17.514,-52.678c11.677,-12.482 27.312,-18.722 46.907,-18.722c20.758,0 36.438,5.547 47.041,16.642c10.603,11.095 16.083,27.513 16.441,49.255l-0.403,0.805l-36.774,0c0.537,-12.794 -1.208,-22.01 -5.234,-27.647c-4.026,-5.637 -11.05,-8.455 -21.071,-8.455c-8.589,0 -15.166,3.355 -19.729,10.065c-4.563,6.711 -6.845,16.866 -6.845,30.466l0,58.65c0,13.779 2.438,24.024 7.315,30.735c4.876,6.71 12.012,10.066 21.406,10.066c9.216,0 15.636,-2.662 19.26,-7.986c3.623,-5.324 5.212,-14.428 4.764,-27.312l36.774,0Z" style="fill:#fff;fill-rule:nonzero;stroke:#fff;stroke-width:1.21px;stroke-linecap:butt;stroke-miterlimit:1.41421;"/><path d="M1704.36,1038.33c0,22.905 -6.219,40.8 -18.656,53.684c-12.437,12.884 -28.989,19.326 -49.658,19.326c-20.668,0 -37.176,-6.442 -49.524,-19.326c-12.347,-12.884 -18.521,-30.779 -18.521,-53.684l0,-54.758c0,-22.816 6.174,-40.733 18.521,-53.752c12.348,-13.018 28.811,-19.527 49.39,-19.527c20.579,0 37.132,6.509 49.658,19.527c12.526,13.019 18.79,30.936 18.79,53.752l0,54.758Zm-37.982,-55.027c0,-13.958 -2.595,-24.493 -7.784,-31.606c-5.19,-7.114 -12.75,-10.67 -22.682,-10.67c-10.021,0 -17.537,3.534 -22.547,10.603c-5.011,7.068 -7.516,17.626 -7.516,31.673l0,55.027c0,14.137 2.55,24.739 7.65,31.808c5.1,7.068 12.616,10.602 22.547,10.602c9.842,0 17.358,-3.534 22.548,-10.602c5.189,-7.069 7.784,-17.671 7.784,-31.808l0,-55.027Z" style="fill:#fff;fill-rule:nonzero;stroke:#fff;stroke-width:1.21px;stroke-linecap:butt;stroke-miterlimit:1.41421;"/></g><g transform="matrix(0.820245,0,0,0.83066,684.323,146.66)"><path d="M874.612,927.34l-54.623,0l0,181.185l-16.106,0l0,-181.185l-54.489,0l0,-14.226l125.218,0l0,14.226Z" style="fill:none;"/><path d="M940.629,1020.35l0,88.177l-16.105,0l0,-195.277l56.1,0c17.537,0 30.958,4.608 40.263,13.824c9.305,9.216 13.958,22.637 13.958,40.263c0,10.379 -2.46,19.617 -7.382,27.715c-4.921,8.097 -11.9,14.07 -20.936,17.917c9.931,3.042 17.067,8.5 21.406,16.374c4.34,7.873 6.509,17.671 6.509,29.392l0,18.387c0,6.084 0.582,11.542 1.745,16.373c1.163,4.832 3.132,8.769 5.905,11.811l0,3.221l-16.507,0c-2.774,-3.221 -4.676,-7.695 -5.704,-13.421c-1.029,-5.726 -1.544,-11.811 -1.544,-18.253l0,-17.85c0,-11.81 -2.997,-21.205 -8.992,-28.184c-5.995,-6.979 -14.226,-10.469 -24.695,-10.469l-44.021,0Zm0,-13.957l38.116,0c13.779,0 23.867,-3.512 30.264,-10.536c6.398,-7.024 9.597,-16.575 9.597,-28.654c0,-12.795 -3.132,-22.637 -9.395,-29.526c-6.263,-6.89 -15.792,-10.335 -28.587,-10.335l-39.995,0l0,79.051Z" style="fill:none;"/><path d="M1186.89,1054.3l-71.266,0l-16.642,54.221l-16.642,0l61.871,-195.411l14.629,0l61.2,195.411l-16.642,0l-16.508,-54.221Zm-66.703,-14.763l62.274,0l-30.6,-100.524l-0.805,0l-30.869,100.524Z" style="fill:none;"/><path d="M1304.04,1074.7l3.221,12.079l0.805,0l3.355,-12.079l46.303,-161.59l17.448,0l-60.261,195.411l-14.629,0l-60.261,-195.411l17.448,0l46.571,161.59Z" style="fill:none;"/><path d="M1517.02,1014.18l-76.768,0l0,80.392l88.176,0l0,13.958l-104.282,0l0,-195.411l103.477,0l0,14.226l-87.371,0l0,72.877l76.768,0l0,13.958Z" style="fill:none;"/><path d="M1596.99,1094.57l78.916,0l0,13.958l-95.156,0l0,-195.411l16.24,0l0,181.453Z" style="fill:none;"/><path d="M874.612,927.34l-54.623,0l0,181.185l-16.106,0l0,-181.185l-54.489,0l0,-14.226l125.218,0l0,14.226Z" style="fill:#fff;fill-rule:nonzero;stroke:#fff;stroke-width:1.21px;stroke-linecap:butt;stroke-miterlimit:1.41421;"/><path d="M940.629,1020.35l0,88.177l-16.105,0l0,-195.277l56.1,0c17.537,0 30.958,4.608 40.263,13.824c9.305,9.216 13.958,22.637 13.958,40.263c0,10.379 -2.46,19.617 -7.382,27.715c-4.921,8.097 -11.9,14.07 -20.936,17.917c9.931,3.042 17.067,8.5 21.406,16.374c4.34,7.873 6.509,17.671 6.509,29.392l0,18.387c0,6.084 0.582,11.542 1.745,16.373c1.163,4.832 3.132,8.769 5.905,11.811l0,3.221l-16.507,0c-2.774,-3.221 -4.676,-7.695 -5.704,-13.421c-1.029,-5.726 -1.544,-11.811 -1.544,-18.253l0,-17.85c0,-11.81 -2.997,-21.205 -8.992,-28.184c-5.995,-6.979 -14.226,-10.469 -24.695,-10.469l-44.021,0Zm0,-13.957l38.116,0c13.779,0 23.867,-3.512 30.264,-10.536c6.398,-7.024 9.597,-16.575 9.597,-28.654c0,-12.795 -3.132,-22.637 -9.395,-29.526c-6.263,-6.89 -15.792,-10.335 -28.587,-10.335l-39.995,0l0,79.051Z" style="fill:#fff;fill-rule:nonzero;stroke:#fff;stroke-width:1.21px;stroke-linecap:butt;stroke-miterlimit:1.41421;"/><path d="M1186.89,1054.3l-71.266,0l-16.642,54.221l-16.642,0l61.871,-195.411l14.629,0l61.2,195.411l-16.642,0l-16.508,-54.221Zm-66.703,-14.763l62.274,0l-30.6,-100.524l-0.805,0l-30.869,100.524Z" style="fill:#fff;fill-rule:nonzero;stroke:#fff;stroke-width:1.21px;stroke-linecap:butt;stroke-miterlimit:1.41421;"/><path d="M1304.04,1074.7l3.221,12.079l0.805,0l3.355,-12.079l46.303,-161.59l17.448,0l-60.261,195.411l-14.629,0l-60.261,-195.411l17.448,0l46.571,161.59Z" style="fill:#fff;fill-rule:nonzero;stroke:#fff;stroke-width:1.21px;stroke-linecap:butt;stroke-miterlimit:1.41421;"/><path d="M1517.02,1014.18l-76.768,0l0,80.392l88.176,0l0,13.958l-104.282,0l0,-195.411l103.477,0l0,14.226l-87.371,0l0,72.877l76.768,0l0,13.958Z" style="fill:#fff;fill-rule:nonzero;stroke:#fff;stroke-width:1.21px;stroke-linecap:butt;stroke-miterlimit:1.41421;"/><path d="M1596.99,1094.57l78.916,0l0,13.958l-95.156,0l0,-195.411l16.24,0l0,181.453Z" style="fill:#fff;fill-rule:nonzero;stroke:#fff;stroke-width:1.21px;stroke-linecap:butt;stroke-miterlimit:1.41421;"/></g><g transform="matrix(0.372998,0,0,0.377734,1016.91,1167.13)"><path d="M821.062,1109.33l-16.105,0l0,-178.769l-40.129,5.503l0,-11.542l56.234,-11.811l0,196.619Z" style="fill:none;"/><path d="M1011.63,1032.83c0,25.232 -4.496,44.625 -13.489,58.18c-8.992,13.556 -21.361,20.333 -37.109,20.333c-15.837,0 -28.296,-6.8 -37.378,-20.4c-9.081,-13.6 -13.622,-32.971 -13.622,-58.113l0,-43.753c0,-25.052 4.496,-44.446 13.488,-58.18c8.992,-13.734 21.407,-20.601 37.244,-20.601c15.837,0 28.273,6.844 37.31,20.534c9.037,13.689 13.556,33.105 13.556,58.247l0,43.753Zm-16.106,-46.571c0,-19.863 -2.975,-35.119 -8.925,-45.766c-5.95,-10.647 -14.562,-15.971 -25.835,-15.971c-11.185,0 -19.729,5.346 -25.635,16.038c-5.905,10.692 -8.857,25.925 -8.857,45.699l0,49.121c0,19.684 2.997,34.94 8.992,45.766c5.994,10.826 14.584,16.239 25.768,16.239c11.184,0 19.729,-5.39 25.634,-16.172c5.906,-10.782 8.858,-26.059 8.858,-45.833l0,-49.121Z" style="fill:none;"/><path d="M1165.15,1032.83c0,25.232 -4.496,44.625 -13.488,58.18c-8.993,13.556 -21.362,20.333 -37.11,20.333c-15.837,0 -28.296,-6.8 -37.377,-20.4c-9.082,-13.6 -13.623,-32.971 -13.623,-58.113l0,-43.753c0,-25.052 4.496,-44.446 13.488,-58.18c8.992,-13.734 21.407,-20.601 37.244,-20.601c15.837,0 28.274,6.844 37.31,20.534c9.037,13.689 13.556,33.105 13.556,58.247l0,43.753Zm-16.106,-46.571c0,-19.863 -2.975,-35.119 -8.925,-45.766c-5.95,-10.647 -14.561,-15.971 -25.835,-15.971c-11.184,0 -19.729,5.346 -25.634,16.038c-5.906,10.692 -8.858,25.925 -8.858,45.699l0,49.121c0,19.684 2.997,34.94 8.992,45.766c5.994,10.826 14.584,16.239 25.768,16.239c11.184,0 19.729,-5.39 25.634,-16.172c5.906,-10.782 8.858,-26.059 8.858,-45.833l0,-49.121Z" style="fill:none;"/><path d="M1278.68,1008.94l50.463,0l0,15.568l-50.463,0l0,64.421l-16.508,0l0,-64.421l-49.792,0l0,-15.568l49.792,0l0,-62.274l16.508,0l0,62.274Z" style="fill:none;"/><path d="M1481.04,1094.57l78.916,0l0,13.958l-95.156,0l0,-195.411l16.24,0l0,181.453Z" style="fill:none;"/><path d="M1716.56,1038.33c0,23.71 -5.525,41.806 -16.575,54.288c-11.05,12.482 -26.194,18.722 -45.431,18.722c-18.879,0 -33.709,-6.24 -44.491,-18.722c-10.781,-12.482 -16.172,-30.578 -16.172,-54.288l0,-54.758c0,-23.711 5.368,-41.852 16.105,-54.423c10.737,-12.571 25.545,-18.856 44.424,-18.856c19.237,0 34.403,6.308 45.498,18.923c11.094,12.616 16.642,30.735 16.642,54.356l0,54.758Zm-15.971,-55.161c0,-19.326 -3.982,-33.866 -11.945,-43.618c-7.963,-9.753 -19.371,-14.629 -34.224,-14.629c-14.405,0 -25.455,4.876 -33.15,14.629c-7.695,9.752 -11.542,24.292 -11.542,43.618l0,55.161c0,19.594 3.847,34.268 11.542,44.021c7.695,9.753 18.79,14.629 33.284,14.629c14.853,0 26.238,-4.876 34.157,-14.629c7.918,-9.753 11.878,-24.427 11.878,-44.021l0,-55.161Z" style="fill:none;"/><path d="M1881.62,1051.75l0.403,0.805c-0.179,19.058 -5.19,33.62 -15.032,43.686c-9.842,10.065 -23.397,15.098 -40.666,15.098c-17.984,0 -32.255,-6.352 -42.813,-19.058c-10.558,-12.705 -15.837,-30.823 -15.837,-54.355l0,-54.087c0,-23.353 5.301,-41.449 15.904,-54.288c10.603,-12.84 24.851,-19.259 42.746,-19.259c17.447,0 31.047,4.921 40.8,14.763c9.753,9.842 14.719,24.516 14.898,44.021l-0.403,0.805l-14.897,0c-0.448,-15.479 -4.027,-26.909 -10.737,-34.291c-6.711,-7.381 -16.598,-11.072 -29.661,-11.072c-13.421,0 -23.889,5.055 -31.405,15.166c-7.516,10.11 -11.274,24.695 -11.274,43.753l0,54.489c0,19.416 3.758,34.179 11.274,44.29c7.516,10.11 17.984,15.165 31.405,15.165c13.063,0 22.95,-3.601 29.661,-10.804c6.71,-7.202 10.289,-18.811 10.737,-34.827l14.897,0Z" style="fill:none;"/><path d="M2026.96,1054.3l-71.266,0l-16.642,54.221l-16.642,0l61.871,-195.411l14.629,0l61.2,195.411l-16.642,0l-16.508,-54.221Zm-66.703,-14.763l62.274,0l-30.6,-100.524l-0.805,0l-30.869,100.524Z" style="fill:none;"/><path d="M2200.75,927.34l-54.624,0l0,181.185l-16.105,0l0,-181.185l-54.49,0l0,-14.226l125.219,0l0,14.226Z" style="fill:none;"/><rect x="2253.21" y="913.114" width="16.24" height="195.411" style="fill:none;"/><path d="M2452.9,1038.33c0,23.71 -5.525,41.806 -16.575,54.288c-11.05,12.482 -26.193,18.722 -45.43,18.722c-18.879,0 -33.71,-6.24 -44.491,-18.722c-10.782,-12.482 -16.173,-30.578 -16.173,-54.288l0,-54.758c0,-23.711 5.369,-41.852 16.106,-54.423c10.737,-12.571 25.545,-18.856 44.423,-18.856c19.237,0 34.403,6.308 45.498,18.923c11.095,12.616 16.642,30.735 16.642,54.356l0,54.758Zm-15.971,-55.161c0,-19.326 -3.982,-33.866 -11.945,-43.618c-7.963,-9.753 -19.371,-14.629 -34.224,-14.629c-14.405,0 -25.455,4.876 -33.15,14.629c-7.694,9.752 -11.542,24.292 -11.542,43.618l0,55.161c0,19.594 3.848,34.268 11.542,44.021c7.695,9.753 18.79,14.629 33.285,14.629c14.852,0 26.238,-4.876 34.156,-14.629c7.919,-9.753 11.878,-24.427 11.878,-44.021l0,-55.161Z" style="fill:none;"/><path d="M2631.65,1108.53l-16.105,0l-87.237,-163.603l-0.806,0.134l0,163.469l-16.239,0l0,-195.411l16.239,0l87.237,163.603l0.806,-0.134l0,-163.469l16.105,0l0,195.411Z" style="fill:none;"/><path d="M2788.93,1060.61c0,-10.648 -3.109,-19.304 -9.328,-25.97c-6.218,-6.666 -17.156,-12.549 -32.814,-17.649c-17.806,-5.458 -31.294,-12.504 -40.465,-21.138c-9.171,-8.634 -13.757,-20.199 -13.757,-34.693c0,-14.943 5.123,-27.156 15.368,-36.64c10.244,-9.484 23.464,-14.226 39.659,-14.226c17,0 30.667,5.592 41.001,16.776c10.335,11.184 15.367,24.829 15.099,40.934l-0.403,0.806l-15.165,0c0,-12.974 -3.602,-23.599 -10.804,-31.876c-7.203,-8.276 -17.112,-12.414 -29.728,-12.414c-12.258,0 -21.787,3.445 -28.587,10.334c-6.8,6.89 -10.2,15.524 -10.2,25.903c0,9.663 3.288,17.783 9.864,24.359c6.577,6.576 17.739,12.325 33.486,17.246c17.358,5.369 30.533,12.638 39.525,21.809c8.992,9.172 13.488,21.228 13.488,36.17c0,15.658 -5.301,28.073 -15.904,37.244c-10.602,9.171 -24.225,13.756 -40.867,13.756c-16.374,0 -30.622,-4.921 -42.746,-14.763c-12.124,-9.842 -17.962,-24.113 -17.514,-42.813l0.268,-0.805l15.032,0c0,15.21 4.406,26.417 13.219,33.619c8.813,7.203 19.394,10.804 31.741,10.804c12.169,0 21.966,-3.355 29.392,-10.065c7.427,-6.711 11.14,-15.614 11.14,-26.708Z" style="fill:none;"/><path d="M821.062,1109.33l-16.105,0l0,-178.769l-40.129,5.503l0,-11.542l56.234,-11.811l0,196.619Z" style="fill:#fff;fill-rule:nonzero;stroke:#fff;stroke-width:2.66px;stroke-linecap:butt;stroke-miterlimit:1.41421;"/><path d="M1011.63,1032.83c0,25.232 -4.496,44.625 -13.489,58.18c-8.992,13.556 -21.361,20.333 -37.109,20.333c-15.837,0 -28.296,-6.8 -37.378,-20.4c-9.081,-13.6 -13.622,-32.971 -13.622,-58.113l0,-43.753c0,-25.052 4.496,-44.446 13.488,-58.18c8.992,-13.734 21.407,-20.601 37.244,-20.601c15.837,0 28.273,6.844 37.31,20.534c9.037,13.689 13.556,33.105 13.556,58.247l0,43.753Zm-16.106,-46.571c0,-19.863 -2.975,-35.119 -8.925,-45.766c-5.95,-10.647 -14.562,-15.971 -25.835,-15.971c-11.185,0 -19.729,5.346 -25.635,16.038c-5.905,10.692 -8.857,25.925 -8.857,45.699l0,49.121c0,19.684 2.997,34.94 8.992,45.766c5.994,10.826 14.584,16.239 25.768,16.239c11.184,0 19.729,-5.39 25.634,-16.172c5.906,-10.782 8.858,-26.059 8.858,-45.833l0,-49.121Z" style="fill:#fff;fill-rule:nonzero;stroke:#fff;stroke-width:2.66px;stroke-linecap:butt;stroke-miterlimit:1.41421;"/><path d="M1165.15,1032.83c0,25.232 -4.496,44.625 -13.488,58.18c-8.993,13.556 -21.362,20.333 -37.11,20.333c-15.837,0 -28.296,-6.8 -37.377,-20.4c-9.082,-13.6 -13.623,-32.971 -13.623,-58.113l0,-43.753c0,-25.052 4.496,-44.446 13.488,-58.18c8.992,-13.734 21.407,-20.601 37.244,-20.601c15.837,0 28.274,6.844 37.31,20.534c9.037,13.689 13.556,33.105 13.556,58.247l0,43.753Zm-16.106,-46.571c0,-19.863 -2.975,-35.119 -8.925,-45.766c-5.95,-10.647 -14.561,-15.971 -25.835,-15.971c-11.184,0 -19.729,5.346 -25.634,16.038c-5.906,10.692 -8.858,25.925 -8.858,45.699l0,49.121c0,19.684 2.997,34.94 8.992,45.766c5.994,10.826 14.584,16.239 25.768,16.239c11.184,0 19.729,-5.39 25.634,-16.172c5.906,-10.782 8.858,-26.059 8.858,-45.833l0,-49.121Z" style="fill:#fff;fill-rule:nonzero;stroke:#fff;stroke-width:2.66px;stroke-linecap:butt;stroke-miterlimit:1.41421;"/><path d="M1278.68,1008.94l50.463,0l0,15.568l-50.463,0l0,64.421l-16.508,0l0,-64.421l-49.792,0l0,-15.568l49.792,0l0,-62.274l16.508,0l0,62.274Z" style="fill:#fff;fill-rule:nonzero;stroke:#fff;stroke-width:2.66px;stroke-linecap:butt;stroke-miterlimit:1.41421;"/><path d="M1481.04,1094.57l78.916,0l0,13.958l-95.156,0l0,-195.411l16.24,0l0,181.453Z" style="fill:#fff;fill-rule:nonzero;stroke:#fff;stroke-width:2.66px;stroke-linecap:butt;stroke-miterlimit:1.41421;"/><path d="M1716.56,1038.33c0,23.71 -5.525,41.806 -16.575,54.288c-11.05,12.482 -26.194,18.722 -45.431,18.722c-18.879,0 -33.709,-6.24 -44.491,-18.722c-10.781,-12.482 -16.172,-30.578 -16.172,-54.288l0,-54.758c0,-23.711 5.368,-41.852 16.105,-54.423c10.737,-12.571 25.545,-18.856 44.424,-18.856c19.237,0 34.403,6.308 45.498,18.923c11.094,12.616 16.642,30.735 16.642,54.356l0,54.758Zm-15.971,-55.161c0,-19.326 -3.982,-33.866 -11.945,-43.618c-7.963,-9.753 -19.371,-14.629 -34.224,-14.629c-14.405,0 -25.455,4.876 -33.15,14.629c-7.695,9.752 -11.542,24.292 -11.542,43.618l0,55.161c0,19.594 3.847,34.268 11.542,44.021c7.695,9.753 18.79,14.629 33.284,14.629c14.853,0 26.238,-4.876 34.157,-14.629c7.918,-9.753 11.878,-24.427 11.878,-44.021l0,-55.161Z" style="fill:#fff;fill-rule:nonzero;stroke:#fff;stroke-width:2.66px;stroke-linecap:butt;stroke-miterlimit:1.41421;"/><path d="M1881.62,1051.75l0.403,0.805c-0.179,19.058 -5.19,33.62 -15.032,43.686c-9.842,10.065 -23.397,15.098 -40.666,15.098c-17.984,0 -32.255,-6.352 -42.813,-19.058c-10.558,-12.705 -15.837,-30.823 -15.837,-54.355l0,-54.087c0,-23.353 5.301,-41.449 15.904,-54.288c10.603,-12.84 24.851,-19.259 42.746,-19.259c17.447,0 31.047,4.921 40.8,14.763c9.753,9.842 14.719,24.516 14.898,44.021l-0.403,0.805l-14.897,0c-0.448,-15.479 -4.027,-26.909 -10.737,-34.291c-6.711,-7.381 -16.598,-11.072 -29.661,-11.072c-13.421,0 -23.889,5.055 -31.405,15.166c-7.516,10.11 -11.274,24.695 -11.274,43.753l0,54.489c0,19.416 3.758,34.179 11.274,44.29c7.516,10.11 17.984,15.165 31.405,15.165c13.063,0 22.95,-3.601 29.661,-10.804c6.71,-7.202 10.289,-18.811 10.737,-34.827l14.897,0Z" style="fill:#fff;fill-rule:nonzero;stroke:#fff;stroke-width:2.66px;stroke-linecap:butt;stroke-miterlimit:1.41421;"/><path d="M2026.96,1054.3l-71.266,0l-16.642,54.221l-16.642,0l61.871,-195.411l14.629,0l61.2,195.411l-16.642,0l-16.508,-54.221Zm-66.703,-14.763l62.274,0l-30.6,-100.524l-0.805,0l-30.869,100.524Z" style="fill:#fff;fill-rule:nonzero;stroke:#fff;stroke-width:2.66px;stroke-linecap:butt;stroke-miterlimit:1.41421;"/><path d="M2200.75,927.34l-54.624,0l0,181.185l-16.105,0l0,-181.185l-54.49,0l0,-14.226l125.219,0l0,14.226Z" style="fill:#fff;fill-rule:nonzero;stroke:#fff;stroke-width:2.66px;stroke-linecap:butt;stroke-miterlimit:1.41421;"/><rect x="2253.21" y="913.114" width="16.24" height="195.411" style="fill:#fff;fill-rule:nonzero;stroke:#fff;stroke-width:2.66px;stroke-linecap:butt;stroke-miterlimit:1.41421;"/><path d="M2452.9,1038.33c0,23.71 -5.525,41.806 -16.575,54.288c-11.05,12.482 -26.193,18.722 -45.43,18.722c-18.879,0 -33.71,-6.24 -44.491,-18.722c-10.782,-12.482 -16.173,-30.578 -16.173,-54.288l0,-54.758c0,-23.711 5.369,-41.852 16.106,-54.423c10.737,-12.571 25.545,-18.856 44.423,-18.856c19.237,0 34.403,6.308 45.498,18.923c11.095,12.616 16.642,30.735 16.642,54.356l0,54.758Zm-15.971,-55.161c0,-19.326 -3.982,-33.866 -11.945,-43.618c-7.963,-9.753 -19.371,-14.629 -34.224,-14.629c-14.405,0 -25.455,4.876 -33.15,14.629c-7.694,9.752 -11.542,24.292 -11.542,43.618l0,55.161c0,19.594 3.848,34.268 11.542,44.021c7.695,9.753 18.79,14.629 33.285,14.629c14.852,0 26.238,-4.876 34.156,-14.629c7.919,-9.753 11.878,-24.427 11.878,-44.021l0,-55.161Z" style="fill:#fff;fill-rule:nonzero;stroke:#fff;stroke-width:2.66px;stroke-linecap:butt;stroke-miterlimit:1.41421;"/><path d="M2631.65,1108.53l-16.105,0l-87.237,-163.603l-0.806,0.134l0,163.469l-16.239,0l0,-195.411l16.239,0l87.237,163.603l0.806,-0.134l0,-163.469l16.105,0l0,195.411Z" style="fill:#fff;fill-rule:nonzero;stroke:#fff;stroke-width:2.66px;stroke-linecap:butt;stroke-miterlimit:1.41421;"/><path d="M2788.93,1060.61c0,-10.648 -3.109,-19.304 -9.328,-25.97c-6.218,-6.666 -17.156,-12.549 -32.814,-17.649c-17.806,-5.458 -31.294,-12.504 -40.465,-21.138c-9.171,-8.634 -13.757,-20.199 -13.757,-34.693c0,-14.943 5.123,-27.156 15.368,-36.64c10.244,-9.484 23.464,-14.226 39.659,-14.226c17,0 30.667,5.592 41.001,16.776c10.335,11.184 15.367,24.829 15.099,40.934l-0.403,0.806l-15.165,0c0,-12.974 -3.602,-23.599 -10.804,-31.876c-7.203,-8.276 -17.112,-12.414 -29.728,-12.414c-12.258,0 -21.787,3.445 -28.587,10.334c-6.8,6.89 -10.2,15.524 -10.2,25.903c0,9.663 3.288,17.783 9.864,24.359c6.577,6.576 17.739,12.325 33.486,17.246c17.358,5.369 30.533,12.638 39.525,21.809c8.992,9.172 13.488,21.228 13.488,36.17c0,15.658 -5.301,28.073 -15.904,37.244c-10.602,9.171 -24.225,13.756 -40.867,13.756c-16.374,0 -30.622,-4.921 -42.746,-14.763c-12.124,-9.842 -17.962,-24.113 -17.514,-42.813l0.268,-0.805l15.032,0c0,15.21 4.406,26.417 13.219,33.619c8.813,7.203 19.394,10.804 31.741,10.804c12.169,0 21.966,-3.355 29.392,-10.065c7.427,-6.711 11.14,-15.614 11.14,-26.708Z" style="fill:#fff;fill-rule:nonzero;stroke:#fff;stroke-width:2.66px;stroke-linecap:butt;stroke-miterlimit:1.41421;"/></g><g transform="matrix(0.372998,0,0,0.377734,1020.72,398.11)"><path d="M866.828,1108.53l-109.65,0l0,-18.118l53.684,-70.595c8.679,-12.258 14.741,-22.391 18.186,-30.399c3.445,-8.008 5.167,-15.77 5.167,-23.286c0,-10.289 -2.17,-18.677 -6.509,-25.164c-4.34,-6.487 -10.312,-9.73 -17.917,-9.73c-9.574,0 -16.754,3.578 -21.541,10.736c-4.787,7.158 -7.181,16.911 -7.181,29.258l-26.171,0l-0.268,-0.671c-0.358,-16.91 4.429,-31.181 14.361,-42.813c9.931,-11.632 23.531,-17.447 40.8,-17.447c15.926,0 28.519,5.033 37.78,15.098c9.26,10.066 13.891,23.375 13.891,39.928c0,11.184 -2.841,22.212 -8.523,33.083c-5.681,10.871 -13.935,23.017 -24.762,36.438l-36.907,53.013l75.56,0l0,20.669Z" style="fill:none;"/><path d="M1021.56,1032.96c0,25.321 -4.854,44.715 -14.562,58.181c-9.708,13.465 -22.883,20.198 -39.525,20.198c-16.731,0 -29.996,-6.755 -39.793,-20.265c-9.798,-13.511 -14.696,-32.882 -14.696,-58.114l0,-44.155c0,-25.142 4.876,-44.513 14.629,-58.113c9.752,-13.6 22.95,-20.4 39.592,-20.4c16.642,0 29.862,6.8 39.659,20.4c9.797,13.6 14.696,32.971 14.696,58.113l0,44.155Zm-27.11,-48.047c0,-17.716 -2.349,-31.092 -7.046,-40.129c-4.698,-9.037 -11.431,-13.555 -20.199,-13.555c-8.769,0 -15.457,4.54 -20.065,13.622c-4.608,9.082 -6.912,22.435 -6.912,40.062l0,51.805c0,17.716 2.349,31.137 7.047,40.263c4.697,9.127 11.43,13.69 20.198,13.69c8.679,0 15.345,-4.541 19.998,-13.622c4.652,-9.082 6.979,-22.526 6.979,-40.331l0,-51.805Z" style="fill:none;"/><path d="M1141.39,1108.79l-27.11,0l0,-168.434l-38.25,2.55l0,-17.582l65.36,-12.347l0,195.813Z" style="fill:none;"/><path d="M1331.42,964.114c0,10.29 -2.461,19.304 -7.382,27.044c-4.921,7.739 -11.587,13.488 -19.997,17.246c9.574,4.026 17.201,10.222 22.883,18.588c5.681,8.366 8.522,18.007 8.522,28.922c0,17.895 -5.078,31.607 -15.233,41.136c-10.155,9.529 -23.375,14.293 -39.659,14.293c-16.553,0 -29.907,-4.764 -40.062,-14.293c-10.155,-9.529 -15.233,-23.241 -15.233,-41.136c0,-11.005 2.819,-20.69 8.455,-29.056c5.637,-8.366 13.287,-14.562 22.95,-18.588c-8.41,-3.758 -15.031,-9.507 -19.863,-17.247c-4.831,-7.739 -7.247,-16.709 -7.247,-26.909c0,-17.089 4.652,-30.331 13.958,-39.726c9.305,-9.395 21.563,-14.092 36.774,-14.092c15.121,0 27.423,4.697 36.907,14.092c9.485,9.395 14.227,22.637 14.227,39.726Zm-23.084,90.861c0,-10.737 -2.64,-19.483 -7.919,-26.238c-5.279,-6.756 -11.989,-10.133 -20.131,-10.133c-8.232,0 -14.92,3.355 -20.065,10.066c-5.145,6.71 -7.717,15.479 -7.717,26.305c0,11.184 2.528,19.93 7.583,26.238c5.055,6.308 11.877,9.462 20.467,9.462c8.142,0 14.808,-3.176 19.997,-9.529c5.19,-6.353 7.785,-15.076 7.785,-26.171Zm-4.295,-90.19c0,-9.842 -2.192,-17.895 -6.577,-24.158c-4.384,-6.263 -10.11,-9.394 -17.178,-9.394c-7.158,0 -12.862,3.019 -17.112,9.059c-4.25,6.039 -6.375,14.204 -6.375,24.493c0,10.111 2.147,18.163 6.442,24.158c4.294,5.995 10.066,8.992 17.313,8.992c7.068,0 12.75,-2.997 17.045,-8.992c4.294,-5.995 6.442,-14.047 6.442,-24.158Z" style="fill:none;"/><path d="M866.828,1108.53l-109.65,0l0,-18.118l53.684,-70.595c8.679,-12.258 14.741,-22.391 18.186,-30.399c3.445,-8.008 5.167,-15.77 5.167,-23.286c0,-10.289 -2.17,-18.677 -6.509,-25.164c-4.34,-6.487 -10.312,-9.73 -17.917,-9.73c-9.574,0 -16.754,3.578 -21.541,10.736c-4.787,7.158 -7.181,16.911 -7.181,29.258l-26.171,0l-0.268,-0.671c-0.358,-16.91 4.429,-31.181 14.361,-42.813c9.931,-11.632 23.531,-17.447 40.8,-17.447c15.926,0 28.519,5.033 37.78,15.098c9.26,10.066 13.891,23.375 13.891,39.928c0,11.184 -2.841,22.212 -8.523,33.083c-5.681,10.871 -13.935,23.017 -24.762,36.438l-36.907,53.013l75.56,0l0,20.669Z" style="fill:#fff;fill-rule:nonzero;stroke:#fff;stroke-width:2.66px;stroke-linecap:butt;stroke-miterlimit:1.41421;"/><path d="M1021.56,1032.96c0,25.321 -4.854,44.715 -14.562,58.181c-9.708,13.465 -22.883,20.198 -39.525,20.198c-16.731,0 -29.996,-6.755 -39.793,-20.265c-9.798,-13.511 -14.696,-32.882 -14.696,-58.114l0,-44.155c0,-25.142 4.876,-44.513 14.629,-58.113c9.752,-13.6 22.95,-20.4 39.592,-20.4c16.642,0 29.862,6.8 39.659,20.4c9.797,13.6 14.696,32.971 14.696,58.113l0,44.155Zm-27.11,-48.047c0,-17.716 -2.349,-31.092 -7.046,-40.129c-4.698,-9.037 -11.431,-13.555 -20.199,-13.555c-8.769,0 -15.457,4.54 -20.065,13.622c-4.608,9.082 -6.912,22.435 -6.912,40.062l0,51.805c0,17.716 2.349,31.137 7.047,40.263c4.697,9.127 11.43,13.69 20.198,13.69c8.679,0 15.345,-4.541 19.998,-13.622c4.652,-9.082 6.979,-22.526 6.979,-40.331l0,-51.805Z" style="fill:#fff;fill-rule:nonzero;stroke:#fff;stroke-width:2.66px;stroke-linecap:butt;stroke-miterlimit:1.41421;"/><path d="M1141.39,1108.79l-27.11,0l0,-168.434l-38.25,2.55l0,-17.582l65.36,-12.347l0,195.813Z" style="fill:#fff;fill-rule:nonzero;stroke:#fff;stroke-width:2.66px;stroke-linecap:butt;stroke-miterlimit:1.41421;"/><path d="M1331.42,964.114c0,10.29 -2.461,19.304 -7.382,27.044c-4.921,7.739 -11.587,13.488 -19.997,17.246c9.574,4.026 17.201,10.222 22.883,18.588c5.681,8.366 8.522,18.007 8.522,28.922c0,17.895 -5.078,31.607 -15.233,41.136c-10.155,9.529 -23.375,14.293 -39.659,14.293c-16.553,0 -29.907,-4.764 -40.062,-14.293c-10.155,-9.529 -15.233,-23.241 -15.233,-41.136c0,-11.005 2.819,-20.69 8.455,-29.056c5.637,-8.366 13.287,-14.562 22.95,-18.588c-8.41,-3.758 -15.031,-9.507 -19.863,-17.247c-4.831,-7.739 -7.247,-16.709 -7.247,-26.909c0,-17.089 4.652,-30.331 13.958,-39.726c9.305,-9.395 21.563,-14.092 36.774,-14.092c15.121,0 27.423,4.697 36.907,14.092c9.485,9.395 14.227,22.637 14.227,39.726Zm-23.084,90.861c0,-10.737 -2.64,-19.483 -7.919,-26.238c-5.279,-6.756 -11.989,-10.133 -20.131,-10.133c-8.232,0 -14.92,3.355 -20.065,10.066c-5.145,6.71 -7.717,15.479 -7.717,26.305c0,11.184 2.528,19.93 7.583,26.238c5.055,6.308 11.877,9.462 20.467,9.462c8.142,0 14.808,-3.176 19.997,-9.529c5.19,-6.353 7.785,-15.076 7.785,-26.171Zm-4.295,-90.19c0,-9.842 -2.192,-17.895 -6.577,-24.158c-4.384,-6.263 -10.11,-9.394 -17.178,-9.394c-7.158,0 -12.862,3.019 -17.112,9.059c-4.25,6.039 -6.375,14.204 -6.375,24.493c0,10.111 2.147,18.163 6.442,24.158c4.294,5.995 10.066,8.992 17.313,8.992c7.068,0 12.75,-2.997 17.045,-8.992c4.294,-5.995 6.442,-14.047 6.442,-24.158Z" style="fill:#fff;fill-rule:nonzero;stroke:#fff;stroke-width:2.66px;stroke-linecap:butt;stroke-miterlimit:1.41421;"/></g></g><path d="M712.192,3185.59c0,-9.424 -7.651,-17.075 -17.075,-17.075l-620.206,0c-9.424,0 -17.075,7.651 -17.075,17.075l0,94.966c0,9.424 7.651,17.075 17.075,17.075l620.206,0c9.424,0 17.075,-7.651 17.075,-17.075l0,-94.966Z" style="fill:none;stroke:#fff;stroke-width:4.17px;"/><path d="M135.888,3248.88l0.156,0l17.988,-48.097l6.022,0l-21.194,55.37l-5.944,0l-21.116,-55.37l6.101,0l17.987,48.097Z" style="fill:#fff;fill-rule:nonzero;"/><path d="M186.331,3232.53c0,-3.181 -0.834,-5.553 -2.503,-7.117c-1.668,-1.564 -4.092,-2.346 -7.273,-2.346c-2.19,0 -4.223,0.391 -6.1,1.173c-1.877,0.782 -3.467,1.825 -4.77,3.128l-2.972,-3.519c1.512,-1.512 3.506,-2.764 5.983,-3.754c2.476,-0.991 5.278,-1.486 8.407,-1.486c1.981,0 3.832,0.274 5.552,0.821c1.721,0.548 3.233,1.369 4.536,2.464c1.304,1.094 2.32,2.476 3.05,4.144c0.73,1.669 1.095,3.624 1.095,5.866l0,16.032c0,1.408 0.052,2.868 0.157,4.38c0.104,1.512 0.26,2.789 0.469,3.832l-4.771,0c-0.156,-0.886 -0.286,-1.851 -0.391,-2.894c-0.104,-1.042 -0.156,-2.059 -0.156,-3.05l-0.157,0c-1.668,2.451 -3.558,4.21 -5.67,5.279c-2.111,1.069 -4.653,1.603 -7.625,1.603c-1.407,0 -2.854,-0.195 -4.34,-0.586c-1.486,-0.391 -2.842,-1.03 -4.067,-1.916c-1.225,-0.887 -2.242,-2.034 -3.05,-3.441c-0.808,-1.408 -1.212,-3.129 -1.212,-5.162c0,-2.815 0.717,-5.044 2.151,-6.687c1.433,-1.642 3.349,-2.867 5.748,-3.675c2.398,-0.808 5.148,-1.33 8.251,-1.564c3.102,-0.235 6.321,-0.352 9.658,-0.352l0,-1.173Zm-1.564,5.318c-2.19,0 -4.393,0.091 -6.609,0.273c-2.215,0.183 -4.223,0.548 -6.021,1.095c-1.799,0.548 -3.272,1.343 -4.419,2.386c-1.147,1.042 -1.721,2.424 -1.721,4.144c0,1.304 0.248,2.399 0.743,3.285c0.496,0.886 1.16,1.603 1.995,2.151c0.834,0.547 1.759,0.938 2.776,1.173c1.017,0.235 2.046,0.352 3.089,0.352c1.877,0 3.545,-0.326 5.005,-0.978c1.46,-0.651 2.685,-1.538 3.676,-2.659c0.991,-1.121 1.747,-2.411 2.268,-3.871c0.521,-1.46 0.782,-2.998 0.782,-4.614l0,-2.737l-1.564,0Z" style="fill:#fff;fill-rule:nonzero;"/><path d="M209.011,3219.55c0.104,0.991 0.182,2.086 0.234,3.285c0.053,1.199 0.079,2.19 0.079,2.972l0.156,0c1.043,-2.138 2.737,-3.871 5.083,-5.201c2.347,-1.329 4.823,-1.994 7.43,-1.994c4.64,0 8.12,1.382 10.441,4.145c2.32,2.763 3.48,6.413 3.48,10.949l0,22.445l-5.318,0l0,-20.256c0,-1.929 -0.157,-3.675 -0.469,-5.239c-0.313,-1.564 -0.848,-2.907 -1.604,-4.028c-0.756,-1.121 -1.772,-1.994 -3.05,-2.62c-1.277,-0.626 -2.88,-0.938 -4.809,-0.938c-1.408,0 -2.777,0.286 -4.106,0.86c-1.33,0.573 -2.516,1.447 -3.559,2.62c-1.042,1.173 -1.877,2.659 -2.502,4.458c-0.626,1.798 -0.939,3.923 -0.939,6.373l0,18.77l-5.318,0l0,-28.545c0,-0.991 -0.026,-2.268 -0.078,-3.832c-0.052,-1.565 -0.13,-2.972 -0.235,-4.224l5.084,0Z" style="fill:#fff;fill-rule:nonzero;"/><path d="M271.967,3232.53c0,-3.181 -0.834,-5.553 -2.503,-7.117c-1.668,-1.564 -4.093,-2.346 -7.273,-2.346c-2.19,0 -4.223,0.391 -6.1,1.173c-1.877,0.782 -3.467,1.825 -4.771,3.128l-2.971,-3.519c1.512,-1.512 3.506,-2.764 5.982,-3.754c2.477,-0.991 5.279,-1.486 8.408,-1.486c1.981,0 3.832,0.274 5.552,0.821c1.721,0.548 3.233,1.369 4.536,2.464c1.304,1.094 2.32,2.476 3.05,4.144c0.73,1.669 1.095,3.624 1.095,5.866l0,16.032c0,1.408 0.052,2.868 0.156,4.38c0.105,1.512 0.261,2.789 0.47,3.832l-4.771,0c-0.156,-0.886 -0.287,-1.851 -0.391,-2.894c-0.104,-1.042 -0.156,-2.059 -0.156,-3.05l-0.157,0c-1.668,2.451 -3.558,4.21 -5.67,5.279c-2.111,1.069 -4.653,1.603 -7.625,1.603c-1.407,0 -2.854,-0.195 -4.34,-0.586c-1.486,-0.391 -2.842,-1.03 -4.067,-1.916c-1.225,-0.887 -2.242,-2.034 -3.05,-3.441c-0.808,-1.408 -1.212,-3.129 -1.212,-5.162c0,-2.815 0.717,-5.044 2.15,-6.687c1.434,-1.642 3.35,-2.867 5.749,-3.675c2.398,-0.808 5.148,-1.33 8.25,-1.564c3.103,-0.235 6.322,-0.352 9.659,-0.352l0,-1.173Zm-1.564,5.318c-2.19,0 -4.393,0.091 -6.609,0.273c-2.216,0.183 -4.223,0.548 -6.022,1.095c-1.798,0.548 -3.271,1.343 -4.418,2.386c-1.147,1.042 -1.721,2.424 -1.721,4.144c0,1.304 0.248,2.399 0.743,3.285c0.496,0.886 1.16,1.603 1.994,2.151c0.835,0.547 1.76,0.938 2.777,1.173c1.016,0.235 2.046,0.352 3.089,0.352c1.877,0 3.545,-0.326 5.005,-0.978c1.46,-0.651 2.685,-1.538 3.676,-2.659c0.99,-1.121 1.746,-2.411 2.268,-3.871c0.521,-1.46 0.782,-2.998 0.782,-4.614l0,-2.737l-1.564,0Z" style="fill:#fff;fill-rule:nonzero;"/><path d="M319.985,3249.97c-1.564,2.346 -3.597,4.118 -6.1,5.318c-2.502,1.199 -5.083,1.798 -7.742,1.798c-2.868,0 -5.461,-0.495 -7.782,-1.486c-2.32,-0.99 -4.301,-2.346 -5.943,-4.066c-1.643,-1.721 -2.92,-3.754 -3.832,-6.1c-0.913,-2.347 -1.369,-4.875 -1.369,-7.586c0,-2.712 0.456,-5.24 1.369,-7.586c0.912,-2.347 2.189,-4.38 3.832,-6.1c1.642,-1.721 3.623,-3.077 5.943,-4.067c2.321,-0.991 4.914,-1.486 7.782,-1.486c2.659,0 5.24,0.613 7.742,1.838c2.503,1.225 4.536,3.037 6.1,5.435l0.157,0l0,-28.858l5.318,0l0,59.124l-5.318,0l0,-6.178l-0.157,0Zm-27.137,-12.122c0,2.033 0.313,3.949 0.938,5.748c0.626,1.799 1.525,3.363 2.699,4.692c1.173,1.33 2.619,2.372 4.34,3.128c1.721,0.756 3.676,1.134 5.865,1.134c2.034,0 3.911,-0.378 5.631,-1.134c1.721,-0.756 3.207,-1.785 4.458,-3.089c1.251,-1.303 2.229,-2.854 2.933,-4.653c0.704,-1.799 1.056,-3.741 1.056,-5.826c0,-2.086 -0.352,-4.028 -1.056,-5.827c-0.704,-1.798 -1.682,-3.363 -2.933,-4.692c-1.251,-1.33 -2.737,-2.372 -4.458,-3.128c-1.72,-0.756 -3.597,-1.134 -5.631,-1.134c-2.189,0 -4.144,0.391 -5.865,1.173c-1.721,0.782 -3.167,1.838 -4.34,3.167c-1.174,1.33 -2.073,2.894 -2.699,4.692c-0.625,1.799 -0.938,3.715 -0.938,5.749Z" style="fill:#fff;fill-rule:nonzero;"/><path d="M344.308,3256.15l-5.318,0l0,-36.601l5.318,0l0,36.601Zm1.095,-50.678c0,1.095 -0.392,1.995 -1.174,2.698c-0.782,0.704 -1.642,1.056 -2.58,1.056c-0.939,0 -1.799,-0.352 -2.581,-1.056c-0.782,-0.703 -1.173,-1.603 -1.173,-2.698c0,-1.095 0.391,-1.994 1.173,-2.698c0.782,-0.704 1.642,-1.056 2.581,-1.056c0.938,0 1.798,0.352 2.58,1.056c0.782,0.704 1.174,1.603 1.174,2.698Z" style="fill:#fff;fill-rule:nonzero;"/><path d="M384.271,3256.15c-0.104,-0.991 -0.182,-2.086 -0.235,-3.285c-0.052,-1.199 -0.078,-2.19 -0.078,-2.972l-0.156,0c-1.043,2.138 -2.737,3.872 -5.084,5.201c-2.346,1.33 -4.822,1.994 -7.429,1.994c-4.64,0 -8.121,-1.381 -10.441,-4.145c-2.32,-2.763 -3.48,-6.412 -3.48,-10.948l0,-22.446l5.318,0l0,20.256c0,1.929 0.157,3.675 0.469,5.24c0.313,1.564 0.848,2.906 1.604,4.027c0.756,1.121 1.772,1.994 3.05,2.62c1.277,0.626 2.88,0.939 4.809,0.939c1.408,0 2.777,-0.287 4.106,-0.861c1.33,-0.573 2.516,-1.446 3.559,-2.62c1.042,-1.173 1.876,-2.659 2.502,-4.457c0.626,-1.799 0.939,-3.924 0.939,-6.374l0,-18.77l5.318,0l0,28.546c0,0.99 0.026,2.268 0.078,3.832c0.052,1.564 0.13,2.972 0.234,4.223l-5.083,0Z" style="fill:#fff;fill-rule:nonzero;"/><path d="M407.576,3225.81c1.043,-2.138 2.646,-3.871 4.81,-5.201c2.164,-1.329 4.575,-1.994 7.234,-1.994c0.991,0 2.021,0.104 3.089,0.313c1.069,0.208 2.112,0.612 3.129,1.212c1.016,0.6 1.955,1.395 2.815,2.385c0.86,0.991 1.603,2.268 2.229,3.832c1.251,-2.502 2.959,-4.418 5.122,-5.748c2.164,-1.329 4.732,-1.994 7.704,-1.994c4.64,0 8.12,1.382 10.44,4.145c2.32,2.763 3.48,6.413 3.48,10.949l0,22.445l-5.318,0l0,-20.256c0,-3.858 -0.716,-6.96 -2.15,-9.306c-1.434,-2.346 -3.871,-3.519 -7.312,-3.519c-1.93,0 -3.559,0.391 -4.888,1.173c-1.33,0.782 -2.399,1.812 -3.207,3.089c-0.808,1.277 -1.395,2.724 -1.759,4.34c-0.365,1.617 -0.548,3.285 -0.548,5.006l0,19.473l-5.318,0l0,-21.35c0,-1.773 -0.13,-3.389 -0.391,-4.849c-0.261,-1.46 -0.717,-2.698 -1.369,-3.715c-0.651,-1.017 -1.551,-1.799 -2.698,-2.346c-1.147,-0.548 -2.607,-0.821 -4.379,-0.821c-1.252,0 -2.516,0.286 -3.793,0.86c-1.278,0.573 -2.425,1.447 -3.441,2.62c-1.017,1.173 -1.838,2.659 -2.464,4.458c-0.625,1.798 -0.938,3.923 -0.938,6.373l0,18.77l-5.318,0l0,-28.545c0,-0.991 -0.026,-2.268 -0.079,-3.832c-0.052,-1.565 -0.13,-2.972 -0.234,-4.224l5.083,0c0.105,0.991 0.183,2.086 0.235,3.285c0.052,1.199 0.078,2.19 0.078,2.972l0.156,0Z" style="fill:#fff;fill-rule:nonzero;"/><path d="M489.693,3200.78l15.641,0c2.816,0 5.37,0.3 7.665,0.899c2.294,0.6 4.262,1.512 5.904,2.737c1.642,1.226 2.907,2.764 3.793,4.615c0.886,1.851 1.33,4.027 1.33,6.53c0,2.502 -0.457,4.679 -1.369,6.53c-0.912,1.851 -2.19,3.389 -3.832,4.614c-1.642,1.225 -3.624,2.151 -5.944,2.777c-2.32,0.625 -4.888,0.938 -7.703,0.938l-9.854,0l0,25.73l-5.631,0l0,-55.37Zm5.631,24.869l9.541,0c4.432,0 7.795,-0.86 10.089,-2.58c2.294,-1.721 3.441,-4.223 3.441,-7.508c0,-3.441 -1.186,-5.957 -3.559,-7.547c-2.372,-1.59 -5.696,-2.385 -9.971,-2.385l-9.541,0l0,20.02Z" style="fill:#fff;fill-rule:nonzero;"/><path d="M530.204,3227.61c0,-0.991 -0.026,-2.268 -0.078,-3.832c-0.052,-1.565 -0.131,-2.972 -0.235,-4.224l5.083,0c0.105,0.991 0.183,2.086 0.235,3.285c0.052,1.199 0.078,2.19 0.078,2.972l0.157,0c1.042,-2.138 2.607,-3.871 4.692,-5.201c2.086,-1.329 4.432,-1.994 7.039,-1.994c0.677,0 1.29,0.026 1.837,0.078c0.548,0.052 1.108,0.157 1.682,0.313l-0.704,5.005c-0.313,-0.104 -0.834,-0.208 -1.564,-0.313c-0.73,-0.104 -1.46,-0.156 -2.19,-0.156c-1.408,0 -2.763,0.261 -4.067,0.782c-1.303,0.521 -2.437,1.342 -3.402,2.463c-0.964,1.121 -1.746,2.555 -2.346,4.302c-0.599,1.746 -0.899,3.845 -0.899,6.295l0,18.77l-5.318,0l0,-28.545Z" style="fill:#fff;fill-rule:nonzero;"/><path d="M584.088,3235.03c-0.156,-3.441 -1.264,-6.295 -3.324,-8.563c-2.059,-2.268 -4.992,-3.402 -8.798,-3.402c-1.773,0 -3.415,0.326 -4.927,0.977c-1.512,0.652 -2.841,1.538 -3.988,2.659c-1.148,1.121 -2.06,2.399 -2.738,3.832c-0.677,1.434 -1.069,2.933 -1.173,4.497l24.948,0Zm5.396,1.721c0,0.365 0,0.756 0,1.173c0,0.417 -0.026,0.86 -0.078,1.329l-30.344,0c0.052,1.825 0.417,3.546 1.095,5.162c0.678,1.616 1.616,3.024 2.815,4.223c1.199,1.199 2.607,2.151 4.223,2.855c1.617,0.703 3.363,1.055 5.24,1.055c2.764,0 5.149,-0.638 7.156,-1.916c2.007,-1.277 3.532,-2.75 4.575,-4.418l3.989,3.128c-2.19,2.763 -4.601,4.744 -7.234,5.944c-2.633,1.199 -5.462,1.798 -8.486,1.798c-2.711,0 -5.227,-0.482 -7.547,-1.446c-2.32,-0.965 -4.314,-2.308 -5.982,-4.028c-1.669,-1.721 -2.985,-3.754 -3.95,-6.1c-0.964,-2.346 -1.447,-4.901 -1.447,-7.664c0,-2.764 0.47,-5.318 1.408,-7.665c0.939,-2.346 2.242,-4.379 3.91,-6.1c1.669,-1.72 3.624,-3.063 5.866,-4.027c2.242,-0.965 4.666,-1.447 7.273,-1.447c2.868,0 5.396,0.482 7.586,1.447c2.19,0.964 4.015,2.268 5.474,3.91c1.46,1.642 2.568,3.558 3.324,5.748c0.756,2.19 1.134,4.536 1.134,7.039Z" style="fill:#fff;fill-rule:nonzero;"/><path d="M619.594,3228.23c-0.782,-1.512 -1.969,-2.75 -3.559,-3.715c-1.59,-0.964 -3.402,-1.446 -5.435,-1.446c-0.939,0 -1.877,0.104 -2.816,0.312c-0.938,0.209 -1.772,0.548 -2.502,1.017c-0.73,0.469 -1.317,1.069 -1.76,1.799c-0.443,0.73 -0.665,1.59 -0.665,2.581c0,1.72 0.704,3.037 2.112,3.949c1.408,0.913 3.624,1.682 6.648,2.307c4.327,0.887 7.52,2.177 9.58,3.871c2.059,1.695 3.089,3.976 3.089,6.843c0,2.086 -0.404,3.846 -1.212,5.279c-0.808,1.434 -1.864,2.607 -3.168,3.52c-1.303,0.912 -2.776,1.564 -4.418,1.955c-1.643,0.391 -3.298,0.586 -4.966,0.586c-2.764,0 -5.449,-0.573 -8.056,-1.72c-2.606,-1.147 -4.744,-2.946 -6.412,-5.396l4.223,-3.129c0.938,1.617 2.32,2.972 4.145,4.067c1.824,1.095 3.832,1.642 6.021,1.642c1.148,0 2.242,-0.104 3.285,-0.312c1.043,-0.209 1.955,-0.574 2.737,-1.095c0.782,-0.522 1.408,-1.186 1.877,-1.995c0.47,-0.808 0.704,-1.811 0.704,-3.011c0,-1.929 -0.925,-3.375 -2.776,-4.34c-1.851,-0.964 -4.523,-1.864 -8.016,-2.698c-1.095,-0.261 -2.255,-0.587 -3.48,-0.978c-1.226,-0.391 -2.36,-0.964 -3.402,-1.72c-1.043,-0.756 -1.903,-1.708 -2.581,-2.855c-0.678,-1.147 -1.017,-2.581 -1.017,-4.301c0,-1.877 0.365,-3.48 1.095,-4.81c0.73,-1.329 1.707,-2.424 2.933,-3.284c1.225,-0.861 2.62,-1.499 4.184,-1.916c1.564,-0.418 3.18,-0.626 4.849,-0.626c2.554,0 5.031,0.573 7.429,1.72c2.398,1.147 4.197,2.764 5.396,4.849l-4.066,3.05Z" style="fill:#fff;fill-rule:nonzero;"/><path d="M653.535,3228.23c-0.782,-1.512 -1.968,-2.75 -3.558,-3.715c-1.59,-0.964 -3.402,-1.446 -5.436,-1.446c-0.938,0 -1.877,0.104 -2.815,0.312c-0.938,0.209 -1.773,0.548 -2.503,1.017c-0.73,0.469 -1.316,1.069 -1.759,1.799c-0.443,0.73 -0.665,1.59 -0.665,2.581c0,1.72 0.704,3.037 2.112,3.949c1.407,0.913 3.623,1.682 6.647,2.307c4.328,0.887 7.521,2.177 9.58,3.871c2.06,1.695 3.09,3.976 3.09,6.843c0,2.086 -0.405,3.846 -1.213,5.279c-0.808,1.434 -1.864,2.607 -3.167,3.52c-1.303,0.912 -2.776,1.564 -4.419,1.955c-1.642,0.391 -3.297,0.586 -4.966,0.586c-2.763,0 -5.448,-0.573 -8.055,-1.72c-2.607,-1.147 -4.745,-2.946 -6.413,-5.396l4.223,-3.129c0.939,1.617 2.32,2.972 4.145,4.067c1.825,1.095 3.832,1.642 6.022,1.642c1.147,0 2.242,-0.104 3.285,-0.312c1.042,-0.209 1.955,-0.574 2.737,-1.095c0.782,-0.522 1.408,-1.186 1.877,-1.995c0.469,-0.808 0.704,-1.811 0.704,-3.011c0,-1.929 -0.926,-3.375 -2.777,-4.34c-1.851,-0.964 -4.523,-1.864 -8.016,-2.698c-1.095,-0.261 -2.255,-0.587 -3.48,-0.978c-1.225,-0.391 -2.359,-0.964 -3.402,-1.72c-1.043,-0.756 -1.903,-1.708 -2.581,-2.855c-0.678,-1.147 -1.016,-2.581 -1.016,-4.301c0,-1.877 0.365,-3.48 1.094,-4.81c0.73,-1.329 1.708,-2.424 2.933,-3.284c1.225,-0.861 2.62,-1.499 4.184,-1.916c1.564,-0.418 3.181,-0.626 4.849,-0.626c2.555,0 5.031,0.573 7.43,1.72c2.398,1.147 4.197,2.764 5.396,4.849l-4.067,3.05Z" style="fill:#fff;fill-rule:nonzero;"/><path d="M473.897,3351.26c0,-8.308 -6.746,-15.053 -15.054,-15.053l-385.954,0c-8.308,0 -15.053,6.745 -15.053,15.053l0,83.723c0,8.308 6.745,15.053 15.053,15.053l385.954,0c8.308,0 15.054,-6.745 15.054,-15.053l0,-83.723Z" style="fill:none;stroke:#fff;stroke-width:4.17px;"/><rect x="111.115" y="3366.44" width="4.964" height="48.814" style="fill:#fff;fill-rule:nonzero;"/><path d="M132.282,3382.99c0.091,0.874 0.16,1.839 0.206,2.896c0.046,1.057 0.069,1.931 0.069,2.62l0.138,0c0.919,-1.885 2.413,-3.413 4.482,-4.585c2.068,-1.172 4.251,-1.758 6.55,-1.758c4.091,0 7.159,1.218 9.204,3.654c2.046,2.436 3.068,5.654 3.068,9.653l0,19.787l-4.688,0l0,-17.857c0,-1.701 -0.138,-3.24 -0.414,-4.619c-0.276,-1.379 -0.747,-2.563 -1.413,-3.551c-0.667,-0.988 -1.563,-1.758 -2.689,-2.31c-1.126,-0.551 -2.54,-0.827 -4.24,-0.827c-1.241,0 -2.448,0.253 -3.62,0.758c-1.172,0.506 -2.218,1.276 -3.137,2.31c-0.919,1.034 -1.655,2.344 -2.206,3.93c-0.552,1.586 -0.828,3.459 -0.828,5.619l0,16.547l-4.688,0l0,-25.165c0,-0.874 -0.023,-2 -0.069,-3.379c-0.046,-1.379 -0.115,-2.62 -0.207,-3.723l4.482,0Z" style="fill:#fff;fill-rule:nonzero;"/><path d="M181.992,3386.92l-9.101,0l0,18.823c0,1.195 0.115,2.183 0.345,2.964c0.23,0.782 0.563,1.391 1,1.828c0.436,0.436 0.953,0.735 1.551,0.896c0.598,0.161 1.241,0.241 1.931,0.241c0.643,0 1.321,-0.092 2.033,-0.276c0.713,-0.183 1.391,-0.436 2.034,-0.758l0.207,4.068c-0.827,0.322 -1.689,0.563 -2.585,0.724c-0.897,0.161 -1.873,0.241 -2.931,0.241c-0.873,0 -1.792,-0.115 -2.757,-0.345c-0.966,-0.229 -1.862,-0.666 -2.689,-1.31c-0.828,-0.643 -1.506,-1.516 -2.034,-2.62c-0.529,-1.103 -0.793,-2.551 -0.793,-4.343l0,-20.133l-6.688,0l0,-3.93l6.688,0l0,-9.101l4.688,0l0,9.101l9.101,0l0,3.93Z" style="fill:#fff;fill-rule:nonzero;"/><path d="M213.225,3396.64c-0.138,-3.034 -1.114,-5.55 -2.93,-7.55c-1.816,-1.999 -4.401,-2.999 -7.757,-2.999c-1.562,0 -3.01,0.287 -4.343,0.862c-1.333,0.574 -2.505,1.356 -3.517,2.344c-1.011,0.988 -1.815,2.114 -2.413,3.378c-0.597,1.264 -0.942,2.586 -1.034,3.965l21.994,0Zm4.758,1.517c0,0.321 0,0.666 0,1.034c0,0.367 -0.023,0.758 -0.069,1.172l-26.752,0c0.046,1.609 0.368,3.125 0.965,4.55c0.598,1.425 1.425,2.666 2.483,3.724c1.057,1.057 2.298,1.896 3.723,2.516c1.425,0.621 2.964,0.931 4.619,0.931c2.436,0 4.539,-0.563 6.309,-1.689c1.769,-1.126 3.114,-2.425 4.033,-3.896l3.516,2.758c-1.93,2.436 -4.056,4.183 -6.377,5.24c-2.321,1.057 -4.815,1.586 -7.481,1.586c-2.39,0 -4.608,-0.425 -6.653,-1.276c-2.046,-0.85 -3.804,-2.034 -5.275,-3.551c-1.471,-1.516 -2.631,-3.309 -3.482,-5.377c-0.85,-2.069 -1.275,-4.321 -1.275,-6.757c0,-2.436 0.414,-4.689 1.241,-6.757c0.827,-2.068 1.976,-3.861 3.447,-5.378c1.471,-1.517 3.195,-2.7 5.171,-3.551c1.977,-0.85 4.114,-1.275 6.412,-1.275c2.528,0 4.758,0.425 6.688,1.275c1.931,0.851 3.54,2 4.827,3.448c1.287,1.448 2.263,3.137 2.93,5.067c0.666,1.931 1,3.999 1,6.206Z" style="fill:#fff;fill-rule:nonzero;"/><path d="M227.359,3390.09c0,-0.874 -0.023,-2 -0.069,-3.379c-0.046,-1.379 -0.115,-2.62 -0.206,-3.723l4.481,0c0.092,0.874 0.161,1.839 0.207,2.896c0.046,1.057 0.069,1.931 0.069,2.62l0.138,0c0.919,-1.885 2.298,-3.413 4.137,-4.585c1.838,-1.172 3.907,-1.758 6.205,-1.758c0.597,0 1.137,0.023 1.62,0.069c0.483,0.046 0.977,0.138 1.482,0.276l-0.62,4.412c-0.276,-0.092 -0.736,-0.184 -1.379,-0.276c-0.644,-0.091 -1.287,-0.137 -1.931,-0.137c-1.241,0 -2.436,0.229 -3.585,0.689c-1.149,0.46 -2.149,1.184 -2.999,2.172c-0.85,0.988 -1.54,2.252 -2.068,3.792c-0.529,1.54 -0.793,3.39 -0.793,5.55l0,16.547l-4.689,0l0,-25.165Z" style="fill:#fff;fill-rule:nonzero;"/><path d="M271.003,3394.43c0,-2.803 -0.736,-4.895 -2.207,-6.274c-1.47,-1.379 -3.608,-2.068 -6.412,-2.068c-1.93,0 -3.723,0.345 -5.378,1.034c-1.654,0.69 -3.056,1.609 -4.205,2.758l-2.62,-3.103c1.333,-1.333 3.091,-2.436 5.274,-3.309c2.183,-0.873 4.654,-1.31 7.412,-1.31c1.747,0 3.378,0.241 4.895,0.724c1.517,0.482 2.85,1.206 3.999,2.172c1.149,0.965 2.046,2.183 2.689,3.654c0.644,1.471 0.965,3.194 0.965,5.171l0,14.134c0,1.241 0.046,2.528 0.138,3.861c0.092,1.333 0.23,2.459 0.414,3.378l-4.206,0c-0.138,-0.781 -0.253,-1.631 -0.345,-2.551c-0.092,-0.919 -0.138,-1.815 -0.138,-2.689l-0.137,0c-1.471,2.161 -3.137,3.712 -4.999,4.654c-1.862,0.943 -4.102,1.414 -6.722,1.414c-1.241,0 -2.517,-0.173 -3.827,-0.517c-1.31,-0.345 -2.505,-0.908 -3.585,-1.69c-1.08,-0.781 -1.977,-1.792 -2.689,-3.033c-0.713,-1.241 -1.069,-2.758 -1.069,-4.551c0,-2.482 0.632,-4.447 1.896,-5.895c1.264,-1.448 2.953,-2.528 5.068,-3.24c2.114,-0.713 4.539,-1.172 7.274,-1.379c2.735,-0.207 5.573,-0.31 8.515,-0.31l0,-1.035Zm-1.379,4.689c-1.931,0 -3.873,0.08 -5.826,0.241c-1.954,0.161 -3.723,0.483 -5.309,0.965c-1.586,0.483 -2.884,1.184 -3.896,2.103c-1.011,0.92 -1.516,2.138 -1.516,3.654c0,1.15 0.218,2.115 0.655,2.896c0.436,0.782 1.022,1.414 1.758,1.896c0.735,0.483 1.551,0.828 2.447,1.034c0.897,0.207 1.804,0.311 2.724,0.311c1.654,0 3.125,-0.288 4.412,-0.862c1.287,-0.575 2.367,-1.356 3.241,-2.344c0.873,-0.989 1.54,-2.126 1.999,-3.413c0.46,-1.287 0.69,-2.643 0.69,-4.068l0,-2.413l-1.379,0Z" style="fill:#fff;fill-rule:nonzero;"/><path d="M310.027,3390.37c-0.782,-1.241 -1.919,-2.264 -3.413,-3.069c-1.494,-0.804 -3.114,-1.206 -4.861,-1.206c-1.885,0 -3.585,0.333 -5.102,1c-1.517,0.666 -2.815,1.585 -3.896,2.757c-1.08,1.173 -1.907,2.552 -2.482,4.137c-0.574,1.586 -0.861,3.298 -0.861,5.137c0,1.838 0.287,3.539 0.861,5.102c0.575,1.563 1.391,2.93 2.448,4.102c1.057,1.172 2.344,2.092 3.861,2.758c1.517,0.667 3.218,1 5.102,1c2.068,0 3.815,-0.391 5.24,-1.172c1.425,-0.782 2.597,-1.793 3.516,-3.034l3.517,2.62c-1.379,1.701 -3.069,3.057 -5.068,4.068c-1.999,1.011 -4.401,1.517 -7.205,1.517c-2.62,0 -4.987,-0.425 -7.101,-1.276c-2.115,-0.85 -3.919,-2.034 -5.413,-3.551c-1.494,-1.516 -2.654,-3.309 -3.482,-5.377c-0.827,-2.069 -1.241,-4.321 -1.241,-6.757c0,-2.436 0.414,-4.689 1.241,-6.757c0.828,-2.068 1.988,-3.861 3.482,-5.378c1.494,-1.517 3.298,-2.7 5.413,-3.551c2.114,-0.85 4.481,-1.275 7.101,-1.275c2.16,0 4.355,0.471 6.585,1.413c2.229,0.943 4.033,2.333 5.412,4.172l-3.654,2.62Z" style="fill:#fff;fill-rule:nonzero;"/><path d="M335.123,3386.92l-9.101,0l0,18.823c0,1.195 0.115,2.183 0.345,2.964c0.23,0.782 0.563,1.391 1,1.828c0.436,0.436 0.954,0.735 1.551,0.896c0.598,0.161 1.241,0.241 1.931,0.241c0.643,0 1.321,-0.092 2.034,-0.276c0.712,-0.183 1.39,-0.436 2.033,-0.758l0.207,4.068c-0.827,0.322 -1.689,0.563 -2.585,0.724c-0.896,0.161 -1.873,0.241 -2.93,0.241c-0.874,0 -1.793,-0.115 -2.758,-0.345c-0.966,-0.229 -1.862,-0.666 -2.689,-1.31c-0.828,-0.643 -1.506,-1.516 -2.034,-2.62c-0.529,-1.103 -0.793,-2.551 -0.793,-4.343l0,-20.133l-6.688,0l0,-3.93l6.688,0l0,-9.101l4.688,0l0,9.101l9.101,0l0,3.93Z" style="fill:#fff;fill-rule:nonzero;"/><path d="M346.5,3415.26l-4.689,0l0,-32.267l4.689,0l0,32.267Zm0.965,-44.677c0,0.965 -0.345,1.758 -1.034,2.378c-0.69,0.621 -1.448,0.931 -2.276,0.931c-0.827,0 -1.585,-0.31 -2.275,-0.931c-0.689,-0.62 -1.034,-1.413 -1.034,-2.378c0,-0.965 0.345,-1.758 1.034,-2.379c0.69,-0.62 1.448,-0.931 2.275,-0.931c0.828,0 1.586,0.311 2.276,0.931c0.689,0.621 1.034,1.414 1.034,2.379Z" style="fill:#fff;fill-rule:nonzero;"/><path d="M371.527,3415.26l-5.171,0l-13.169,-32.267l5.24,0l10.48,27.303l0.138,0l10.549,-27.303l5.033,0l-13.1,32.267Z" style="fill:#fff;fill-rule:nonzero;"/><path d="M415.86,3396.64c-0.138,-3.034 -1.114,-5.55 -2.93,-7.55c-1.816,-1.999 -4.401,-2.999 -7.757,-2.999c-1.562,0 -3.01,0.287 -4.343,0.862c-1.333,0.574 -2.505,1.356 -3.517,2.344c-1.011,0.988 -1.815,2.114 -2.413,3.378c-0.597,1.264 -0.942,2.586 -1.034,3.965l21.994,0Zm4.758,1.517c0,0.321 0,0.666 0,1.034c0,0.367 -0.023,0.758 -0.069,1.172l-26.752,0c0.046,1.609 0.368,3.125 0.965,4.55c0.598,1.425 1.425,2.666 2.483,3.724c1.057,1.057 2.298,1.896 3.723,2.516c1.425,0.621 2.964,0.931 4.619,0.931c2.436,0 4.539,-0.563 6.309,-1.689c1.769,-1.126 3.114,-2.425 4.033,-3.896l3.516,2.758c-1.93,2.436 -4.056,4.183 -6.377,5.24c-2.321,1.057 -4.815,1.586 -7.481,1.586c-2.39,0 -4.608,-0.425 -6.653,-1.276c-2.046,-0.85 -3.804,-2.034 -5.275,-3.551c-1.471,-1.516 -2.631,-3.309 -3.482,-5.377c-0.85,-2.069 -1.275,-4.321 -1.275,-6.757c0,-2.436 0.414,-4.689 1.241,-6.757c0.827,-2.068 1.976,-3.861 3.447,-5.378c1.471,-1.517 3.195,-2.7 5.171,-3.551c1.977,-0.85 4.114,-1.275 6.412,-1.275c2.528,0 4.758,0.425 6.688,1.275c1.931,0.851 3.54,2 4.827,3.448c1.287,1.448 2.263,3.137 2.93,5.067c0.666,1.931 1,3.999 1,6.206Z" style="fill:#fff;fill-rule:nonzero;"/></svg>